<svg id="Layer_1" data-name="Layer 1" xmlns="http://www.w3.org/2000/svg" viewBox="0 0 429.97 392.01"><defs><style>.cls-1{fill:#38240b;}.cls-2{fill:#f29d20;}.cls-3{fill:#dd8614;}</style></defs><title>logo braon</title><path class="cls-1" d="M307.73,33.81a6.39,6.39,0,0,0-1.87-4.54,5.84,5.84,0,0,0-4.27-1.73h0l-110.24.8a62.19,62.19,0,0,0-61.66,62.59l.67,96.9A6,6,0,0,0,136.5,194h0l110.23-1.07c34.17-.14,61.93-28.43,61.53-62.33ZM246.87,189.56l-110.11.8h0a2.6,2.6,0,0,1-2.67-2.67l-.66-96.89a57.86,57.86,0,0,1,16.81-41.51,58.53,58.53,0,0,1,41.38-17.48L301.85,31h0a3,3,0,0,1,1.87.8,2.6,2.6,0,0,1,.8,1.87l.67,96.89A58.69,58.69,0,0,1,246.87,189.56Z"/><path class="cls-1" d="M290.51,40.22l-95.42.67A52.31,52.31,0,0,0,143.17,93.6l.53,84a3.93,3.93,0,0,0,4,4l95.69-.66a52.31,52.31,0,0,0,51.91-52.72l-.53-83.95A4.44,4.44,0,0,0,290.51,40.22Z"/><path class="cls-2" d="M250.34,108.82l-8.14,4.54a3.26,3.26,0,0,1-3.87-.54l-6-6.54a1.35,1.35,0,0,1,.27-2l7.74-4.4a3.06,3.06,0,0,1,3.74.53l6.54,6.41C251.27,107.22,251.14,108.28,250.34,108.82Z"/><path class="cls-2" d="M262.88,100.28l-8.4,4a3.06,3.06,0,0,1-3.74-.8L245,96.54a1.36,1.36,0,0,1,.4-2l8-3.87a2.87,2.87,0,0,1,3.6.8l6,6.8A1.14,1.14,0,0,1,262.88,100.28Z"/><path class="cls-2" d="M276.23,90.67l-7.87,4.67a3.06,3.06,0,0,1-3.88-.54l-6.27-6.27a1.27,1.27,0,0,1,.27-2L266.09,82a3.22,3.22,0,0,1,3.73.4l6.68,6.14A1.62,1.62,0,0,1,276.23,90.67Z"/><path class="cls-2" d="M226.05,76.65l-6.54,6.54a3.26,3.26,0,0,0-.54,3.87l4.54,7.61a1.27,1.27,0,0,0,2,.27l6.28-6.14a3.07,3.07,0,0,0,.53-3.74l-4.27-8A1.21,1.21,0,0,0,226.05,76.65Z"/><path class="cls-2" d="M239,66.64l-6.8,6.14a3.07,3.07,0,0,0-.67,3.74l4.27,7.74a1.3,1.3,0,0,0,2,.4l6.54-6a2.89,2.89,0,0,0,.67-3.61l-4-8.14A1.36,1.36,0,0,0,239,66.64Z"/><path class="cls-2" d="M254.88,59.3l-7.74,4.94a3.23,3.23,0,0,0-1.34,3.61l2.8,8.4a1.28,1.28,0,0,0,1.87.67L258,72.25a3.34,3.34,0,0,0,1.46-3.6L256.88,60A1.35,1.35,0,0,0,254.88,59.3Z"/><path class="cls-2" d="M279.43,67.58l-3.07,8.67a3,3,0,0,1-3.33,2l-8.81-.93a1.23,1.23,0,0,1-1.07-1.73l3.07-8.41a3,3,0,0,1,3.2-2l9.08.66A1.2,1.2,0,0,1,279.43,67.58Z"/><path class="cls-3" d="M189.61,167.27a1,1,0,0,1-.53-.13h-.27a3.25,3.25,0,0,1-1.87-1.2,4.83,4.83,0,0,1-1.33-2.4l-10.28-47.65a4.62,4.62,0,0,1-.13-1.33,2.38,2.38,0,0,1,1.73-1.61c.27-.13.41-.13.67-.26s.4-.14.54-.14a1,1,0,0,1,.53.14,3.44,3.44,0,0,1,1.47.93,3.57,3.57,0,0,1,.93,1.87l8.81,42.17h1.74l1.46-5.2c4.27-16,16.95-35.23,24.43-44.18C229.12,94.54,241.4,86.8,253,80c2-1.2,3.07-1.74,4-1.74a1.62,1.62,0,0,1,.8.14,2.48,2.48,0,0,1,1.47,1.2,1.75,1.75,0,0,1,.4,1.73,2,2,0,0,1-.67.94c-2.67,1.73-5.07,3.2-7.34,4.54-12.28,7.6-20.28,12.54-35.23,32-7.07,9.34-12.68,19.88-18,34.3l-4,10.67a6.64,6.64,0,0,1-4,3.34l-.4.13Z"/><path class="cls-1" d="M57.87,255.81h.25a3.83,3.83,0,0,1,3.74,3L71,301.5l8.71-42.64a3.82,3.82,0,0,1,3.75-3.05h0a3.82,3.82,0,0,1,3.73,4.64L75.35,314.1a4.73,4.73,0,0,1-4.61,3.7h0a4.73,4.73,0,0,1-4.61-3.69l-12-53.65A3.82,3.82,0,0,1,57.87,255.81Z"/><path class="cls-1" d="M98.75,258.41h0a4.1,4.1,0,0,1,4.1,4.09v.39a4.1,4.1,0,0,1-4.1,4.09h0a4.09,4.09,0,0,1-4.09-4.09v-.39A4.09,4.09,0,0,1,98.75,258.41Zm0,15.15h0a4.11,4.11,0,0,1,4.1,4.1v36a4.1,4.1,0,0,1-4.1,4.1h0a4.09,4.09,0,0,1-4.09-4.1v-36A4.1,4.1,0,0,1,98.75,273.56Z"/><path class="cls-1" d="M113.87,307.85V279h-2a2.71,2.71,0,0,1-2.71-2.72h0a2.71,2.71,0,0,1,2.71-2.72h2v-8.84a4.09,4.09,0,0,1,4.09-4.09h0a4.1,4.1,0,0,1,4.1,4.09v8.84h4.4a2.71,2.71,0,0,1,2.71,2.72h0a2.71,2.71,0,0,1-2.71,2.72h-4.4v28.31a6.24,6.24,0,0,0,.84,3.75c.56.72.9,1.05,2.48,1.05H126a3.11,3.11,0,0,1,3.15,3.1h0a3.12,3.12,0,0,1-2.85,3.09q-1.47.12-2.82.12Q113.88,318.41,113.87,307.85Z"/><path class="cls-1" d="M138.63,317a10,10,0,0,1-3.18-3.83,11.21,11.21,0,0,1-1.15-5,14.73,14.73,0,0,1,2.22-8.46,16.44,16.44,0,0,1,5.67-5.17,87.28,87.28,0,0,1,9.56-4.36V287q0-4.36-.88-6.16c-.59-1.2-1.77-1.8-3.56-1.8-3.11,0-4.3,1.66-4.67,4.28v.2a3.87,3.87,0,0,1-4,3.87h0A3.86,3.86,0,0,1,135,282.9a12.84,12.84,0,0,1,3-6.47q3.21-3.48,9.95-3.48,6.35,0,9.22,3.48T159.94,287v20.2q0,3.1.3,6.47a3.84,3.84,0,0,1-3.83,4.17h0a3.84,3.84,0,0,1-3.79-3.21c-.23-1.36-.4-2.45-.49-3.3a11.23,11.23,0,0,1-3.17,5.06,8.26,8.26,0,0,1-5.78,2.06A7.61,7.61,0,0,1,138.63,317Zm10.9-6.85a10,10,0,0,0,2.22-2.41V295.15a48.53,48.53,0,0,0-5.09,3.17,12.68,12.68,0,0,0-3,3.1,7.38,7.38,0,0,0-1.19,4.21,7.59,7.59,0,0,0,1,4.25,3.27,3.27,0,0,0,2.9,1.49A4.89,4.89,0,0,0,149.53,310.11Z"/><path class="cls-3" d="M172.45,258.41h0a4.09,4.09,0,0,1,4.1,4.09v.39a4.09,4.09,0,0,1-4.1,4.09h0a4.09,4.09,0,0,1-4.09-4.09v-.39A4.09,4.09,0,0,1,172.45,258.41Zm0,15.15h0a4.1,4.1,0,0,1,4.1,4.1v36a4.09,4.09,0,0,1-4.1,4.1h0a4.09,4.09,0,0,1-4.09-4.1v-36A4.1,4.1,0,0,1,172.45,273.56Z"/><path class="cls-3" d="M189.44,273.56h0a4.1,4.1,0,0,1,4.1,4.1v.26q5.28-5,10.79-5a5.48,5.48,0,0,1,5.13,2.6A12.52,12.52,0,0,1,211,282V313.7a4.09,4.09,0,0,1-4.1,4.1h0a4.09,4.09,0,0,1-4.09-4.1V284.35a7.24,7.24,0,0,0-.77-3.75,3,3,0,0,0-2.75-1.22c-1.63,0-3.55.92-5.74,2.75V313.7a4.09,4.09,0,0,1-4.1,4.1h0a4.09,4.09,0,0,1-4.09-4.1v-36A4.1,4.1,0,0,1,189.44,273.56Z"/><path class="cls-3" d="M221.17,307.85V279h-1.95a2.72,2.72,0,0,1-2.72-2.72h0a2.72,2.72,0,0,1,2.72-2.72h1.95v-8.84a4.09,4.09,0,0,1,4.09-4.09h0a4.1,4.1,0,0,1,4.1,4.09v8.84h4.4a2.71,2.71,0,0,1,2.71,2.72h0a2.71,2.71,0,0,1-2.71,2.72h-4.4v28.31a6.24,6.24,0,0,0,.84,3.75,2.68,2.68,0,0,0,2.21,1.08c.24,0,.54,0,.86,0a3.07,3.07,0,0,1,3.13,3.06h0a3.09,3.09,0,0,1-2.82,3.06q-1.49.12-2.85.12Q221.18,318.41,221.17,307.85Z"/><path class="cls-3" d="M246.81,316.46a10.3,10.3,0,0,1-4-5.78,35.33,35.33,0,0,1-1.15-9.95v-10.1q0-9.18,2.87-13.43T254.77,273q5.35,0,8.07,2.22a10.73,10.73,0,0,1,3.6,6.24,53.3,53.3,0,0,1,.88,10.83v3.59H249.87v8.88c0,2.71.39,4.66,1.19,5.86a4.19,4.19,0,0,0,3.78,1.8,3.57,3.57,0,0,0,3.52-1.8,7.08,7.08,0,0,0,.92-3.48v-.66a4,4,0,0,1,4-4h0a4,4,0,0,1,4,3.94v.13c-.24,4.81-1.07,5.8-3.06,8.25s-5.16,3.67-9.49,3.67C251.35,318.41,248.69,317.76,246.81,316.46Zm12.47-25.07v-4a16.94,16.94,0,0,0-.88-6.46c-.59-1.3-1.82-1.95-3.71-1.95a4.41,4.41,0,0,0-3,.91,5.22,5.22,0,0,0-1.42,3,37,37,0,0,0-.38,6.08v2.37Z"/><path class="cls-3" d="M276,329.47a6.68,6.68,0,0,1-3.83-6.31,7.59,7.59,0,0,1,1.8-5.05,10.53,10.53,0,0,1,1.32-1.35,2.65,2.65,0,0,0,.23-3.82l-.17-.19a4.28,4.28,0,0,1-1.11-2.83,6.92,6.92,0,0,1,1.14-4,17.57,17.57,0,0,1,1.85-2.21,2.64,2.64,0,0,0,.07-3.57,12.16,12.16,0,0,1-2-3.29,21.67,21.67,0,0,1-1.26-8.15q0-7.74,3.17-11.75t9.3-4a11.89,11.89,0,0,1,5.74,1.22,7.43,7.43,0,0,1,1.8,1.38,2.62,2.62,0,0,0,3.59.23l.24-.19a11.6,11.6,0,0,1,1.88-1.42l.53-.25a2.6,2.6,0,0,1,3.54,1.4h0a2.6,2.6,0,0,1-1.58,3.42c-.5.16-1,.35-1.62.56l-1.11.43a2.59,2.59,0,0,0-1.57,3c.14.57.26,1.21.39,1.92a25.74,25.74,0,0,1,.42,4.29c0,4.84-.95,8.61-2.83,11.28s-5,4-9.42,4a16.12,16.12,0,0,1-2.48-.19,2.65,2.65,0,0,0-2.81,1.54,3.84,3.84,0,0,0-.37,1.48,1.48,1.48,0,0,0,.88,1.34,6.9,6.9,0,0,0,2.79.65l6.89.62c3.47.3,6,1.35,7.73,3.13s2.53,4.34,2.53,7.66q0,11-15.39,11Q279.8,331.5,276,329.47ZM293.26,324a3.48,3.48,0,0,0,2.07-3.33,3.81,3.81,0,0,0-1.3-3.18c-.87-.69-2.45-1.13-4.75-1.34l-5.72-.5a2.64,2.64,0,0,0-2.15.83,16.71,16.71,0,0,0-1.54,1.89,4.65,4.65,0,0,0-.84,2.68,3.19,3.19,0,0,0,1.72,3q1.72,1,6.08,1A15.06,15.06,0,0,0,293.26,324Zm-2.52-27.82q1-2.3,1-7.5a21.86,21.86,0,0,0-1-7.7c-.67-1.6-2.07-2.41-4.21-2.41s-3.59.81-4.33,2.41-1.11,4.18-1.11,7.7A18.74,18.74,0,0,0,282.2,296a4.21,4.21,0,0,0,4.25,2.52C288.65,298.51,290.07,297.75,290.74,296.22Z"/><path class="cls-3" d="M312.36,273.56h0a4.1,4.1,0,0,1,4.09,4.1v2.18c1.53-2.5,2.48-3.76,4.32-5a9.13,9.13,0,0,1,1.75-1l.41-.16c3.77-.91,4.62,1.85,4.62,3.71h0c0,1.76-.55,3.55-3,3.76-.42,0-1.09.07-1.48.07a6.66,6.66,0,0,0-3.56.95,9.79,9.79,0,0,0-3,3.33v28.2a4.09,4.09,0,0,1-4.09,4.1h0a4.1,4.1,0,0,1-4.1-4.1v-36A4.11,4.11,0,0,1,312.36,273.56Z"/><path class="cls-3" d="M336,317a10,10,0,0,1-3.18-3.83,11.35,11.35,0,0,1-1.15-5,14.73,14.73,0,0,1,2.22-8.46,16.44,16.44,0,0,1,5.67-5.17,87.28,87.28,0,0,1,9.56-4.36V287q0-4.36-.88-6.16c-.58-1.2-1.77-1.8-3.56-1.8-3.11,0-4.22,1.88-4.56,4.55h0a3.91,3.91,0,0,1-4.05,3.8h0a3.89,3.89,0,0,1-3.71-4.56,12.82,12.82,0,0,1,2.94-6.43q3.21-3.48,10-3.48,6.36,0,9.22,3.48T357.32,287v20.2q0,3.1.3,6.47a3.84,3.84,0,0,1-3.83,4.17h0a3.86,3.86,0,0,1-3.79-3.21c-.23-1.36-.39-2.45-.48-3.3a11.33,11.33,0,0,1-3.18,5.06,8.26,8.26,0,0,1-5.78,2.06A7.61,7.61,0,0,1,336,317Zm10.9-6.85a10,10,0,0,0,2.22-2.41V295.15a48.53,48.53,0,0,0-5.09,3.17,12.86,12.86,0,0,0-3,3.1,7.38,7.38,0,0,0-1.19,4.21,7.59,7.59,0,0,0,1,4.25,3.28,3.28,0,0,0,2.91,1.49A4.89,4.89,0,0,0,346.91,310.11Z"/><path class="cls-3" d="M370.07,255.81h0a4.09,4.09,0,0,1,4.09,4.09v53.8a4.09,4.09,0,0,1-4.09,4.1h0a4.09,4.09,0,0,1-4.1-4.1V259.9A4.09,4.09,0,0,1,370.07,255.81Z"/></svg>