<svg id="Layer_1" data-name="Layer 1" xmlns="http://www.w3.org/2000/svg" viewBox="0 0 513.19 146.51"><defs><style>.cls-1{fill:#004e46;}.cls-2{fill:#f29d20;}.cls-3{fill:#0a9962;}</style></defs><title>logo u liniji</title><path class="cls-1" d="M152.51,17a4.48,4.48,0,0,0-1.32-3.2,4.1,4.1,0,0,0-3-1.22h0l-77.7.56A43.84,43.84,0,0,0,27,57.3l.47,68.29a4.25,4.25,0,0,0,4.32,4.32h0l77.7-.75a43.67,43.67,0,0,0,43.36-43.93Zm-42.9,109.77-77.6.56h0a1.82,1.82,0,0,1-1.88-1.88L29.66,57.2A40.81,40.81,0,0,1,41.51,28,41.22,41.22,0,0,1,70.67,15.63l77.7-.57h0a2.11,2.11,0,0,1,1.31.57,1.82,1.82,0,0,1,.57,1.31l.47,68.29A41.37,41.37,0,0,1,109.61,126.81Z"/><path class="cls-1" d="M140.37,21.55,73.12,22A36.88,36.88,0,0,0,36.53,59.18l.37,59.16a2.78,2.78,0,0,0,2.82,2.83l67.45-.47a36.88,36.88,0,0,0,36.59-37.16l-.38-59.16A3.14,3.14,0,0,0,140.37,21.55Z"/><path class="cls-2" d="M112.06,69.9l-5.74,3.2a2.29,2.29,0,0,1-2.73-.38l-4.23-4.61a1,1,0,0,1,.19-1.41L105,63.6a2.16,2.16,0,0,1,2.64.38l4.61,4.51C112.72,68.77,112.62,69.53,112.06,69.9Z"/><path class="cls-2" d="M120.9,63.88,115,66.7a2.16,2.16,0,0,1-2.63-.56l-4-4.89a1,1,0,0,1,.28-1.41l5.64-2.73a2,2,0,0,1,2.54.56l4.23,4.8A.8.8,0,0,1,120.9,63.88Z"/><path class="cls-2" d="M130.31,57.11l-5.55,3.29A2.15,2.15,0,0,1,122,60l-4.42-4.43a.89.89,0,0,1,.19-1.41L123.16,51a2.27,2.27,0,0,1,2.63.28l4.7,4.32A1.14,1.14,0,0,1,130.31,57.11Z"/><path class="cls-2" d="M94.94,47.23l-4.61,4.61A2.3,2.3,0,0,0,90,54.57l3.2,5.36a.89.89,0,0,0,1.41.19L99,55.79a2.14,2.14,0,0,0,.38-2.63l-3-5.64A.86.86,0,0,0,94.94,47.23Z"/><path class="cls-2" d="M104.06,40.18l-4.79,4.33a2.14,2.14,0,0,0-.47,2.63l3,5.45a.92.92,0,0,0,1.41.29l4.61-4.24a2,2,0,0,0,.47-2.54l-2.83-5.73A1,1,0,0,0,104.06,40.18Z"/><path class="cls-2" d="M115.26,35l-5.46,3.49a2.26,2.26,0,0,0-.94,2.53l2,5.93a.89.89,0,0,0,1.31.47l5.27-3.29a2.35,2.35,0,0,0,1-2.54l-1.78-6.11A1,1,0,0,0,115.26,35Z"/><path class="cls-2" d="M132.56,40.84,130.4,47a2.09,2.09,0,0,1-2.35,1.41l-6.21-.66a.86.86,0,0,1-.75-1.22l2.16-5.93a2.16,2.16,0,0,1,2.26-1.41l6.4.47A.85.85,0,0,1,132.56,40.84Z"/><path class="cls-3" d="M69.26,111.1a.76.76,0,0,1-.38-.09H68.7a2.31,2.31,0,0,1-1.32-.85,3.34,3.34,0,0,1-.94-1.69L59.2,74.89a3,3,0,0,1-.1-.94,1.67,1.67,0,0,1,1.22-1.13c.19-.1.29-.1.47-.19s.29-.09.38-.09a.76.76,0,0,1,.38.09,2.54,2.54,0,0,1,1.69,2l6.21,29.72h1.22l1-3.67c3-11.29,11.94-24.83,17.21-31.13,8.18-9.69,16.84-15.15,25-20a6.34,6.34,0,0,1,2.82-1.22,1.15,1.15,0,0,1,.57.1,1.73,1.73,0,0,1,1,.84,1.22,1.22,0,0,1,.28,1.23,1.41,1.41,0,0,1-.47.65c-1.88,1.23-3.57,2.26-5.17,3.2C104.35,59.74,98.7,63.22,88.17,77c-5,6.58-8.94,14-12.7,24.17l-2.82,7.53A4.74,4.74,0,0,1,69.82,111l-.28.09Z"/><path class="cls-1" d="M174,40.56h.25a3.82,3.82,0,0,1,3.74,3l9.15,42.67,8.71-42.63a3.83,3.83,0,0,1,3.75-3.06h0a3.82,3.82,0,0,1,3.73,4.65L191.44,98.85a4.73,4.73,0,0,1-4.61,3.7h0a4.72,4.72,0,0,1-4.61-3.69l-12-53.64A3.83,3.83,0,0,1,174,40.56Z"/><path class="cls-1" d="M214.84,43.16h0a4.09,4.09,0,0,1,4.1,4.09v.39a4.09,4.09,0,0,1-4.1,4.09h0a4.09,4.09,0,0,1-4.09-4.09v-.39A4.09,4.09,0,0,1,214.84,43.16Zm0,15.15h0a4.1,4.1,0,0,1,4.1,4.1V98.46a4.09,4.09,0,0,1-4.1,4.09h0a4.09,4.09,0,0,1-4.09-4.09v-36A4.1,4.1,0,0,1,214.84,58.31Z"/><path class="cls-1" d="M230,92.6V63.75h-2A2.72,2.72,0,0,1,225.29,61h0A2.72,2.72,0,0,1,228,58.31h2V49.47a4.09,4.09,0,0,1,4.09-4.09h0a4.1,4.1,0,0,1,4.1,4.09v8.84h4.4A2.71,2.71,0,0,1,245.26,61h0a2.71,2.71,0,0,1-2.71,2.72h-4.4V92.07a6.28,6.28,0,0,0,.84,3.75c.56.71.9,1,2.48,1H242a3.09,3.09,0,0,1,3.15,3.09h0a3.1,3.1,0,0,1-2.85,3.09q-1.47.12-2.82.12Q230,103.16,230,92.6Z"/><path class="cls-1" d="M254.72,101.71a10,10,0,0,1-3.18-3.83,11.35,11.35,0,0,1-1.15-5,14.73,14.73,0,0,1,2.22-8.46,16.44,16.44,0,0,1,5.67-5.17,89.23,89.23,0,0,1,9.56-4.36V71.78c0-2.9-.29-5-.88-6.16s-1.77-1.8-3.56-1.8c-3.11,0-4.3,1.66-4.66,4.28v.2a3.88,3.88,0,0,1-4,3.87h0A3.86,3.86,0,0,1,251,67.66a12.84,12.84,0,0,1,3-6.48q3.21-3.48,9.95-3.48,6.36,0,9.22,3.48C275.08,63.51,276,67,276,71.71v20.2q0,3.11.3,6.47a3.84,3.84,0,0,1-3.83,4.17h0a3.86,3.86,0,0,1-3.79-3.21c-.23-1.35-.39-2.45-.48-3.29a11.3,11.3,0,0,1-3.18,5,8.26,8.26,0,0,1-5.78,2.06A7.61,7.61,0,0,1,254.72,101.71Zm10.9-6.85a10,10,0,0,0,2.22-2.41V79.9a48.53,48.53,0,0,0-5.09,3.17,13,13,0,0,0-3,3.1,7.38,7.38,0,0,0-1.19,4.21,7.57,7.57,0,0,0,1,4.25,3.26,3.26,0,0,0,2.91,1.49A4.89,4.89,0,0,0,265.62,94.86Z"/><path class="cls-3" d="M288.55,43.16h0a4.09,4.09,0,0,1,4.09,4.09v.39a4.09,4.09,0,0,1-4.09,4.09h0a4.09,4.09,0,0,1-4.1-4.09v-.39A4.09,4.09,0,0,1,288.55,43.16Zm0,15.15h0a4.1,4.1,0,0,1,4.09,4.1V98.46a4.09,4.09,0,0,1-4.09,4.09h0a4.09,4.09,0,0,1-4.1-4.09v-36A4.1,4.1,0,0,1,288.55,58.31Z"/><path class="cls-3" d="M305.54,58.31h0a4.1,4.1,0,0,1,4.09,4.1v.27q5.28-5,10.79-5a5.48,5.48,0,0,1,5.13,2.6,12.52,12.52,0,0,1,1.53,6.43V98.46a4.09,4.09,0,0,1-4.09,4.09h0a4.09,4.09,0,0,1-4.1-4.09V69.11a7.2,7.2,0,0,0-.76-3.75,3,3,0,0,0-2.76-1.23c-1.63,0-3.55.92-5.74,2.76V98.46a4.09,4.09,0,0,1-4.09,4.09h0a4.09,4.09,0,0,1-4.1-4.09v-36A4.1,4.1,0,0,1,305.54,58.31Z"/><path class="cls-3" d="M337.26,92.6V63.75h-1.95A2.72,2.72,0,0,1,332.59,61h0a2.72,2.72,0,0,1,2.72-2.72h1.95V49.47a4.09,4.09,0,0,1,4.09-4.09h0a4.09,4.09,0,0,1,4.1,4.09v8.84h4.4A2.72,2.72,0,0,1,352.57,61h0a2.72,2.72,0,0,1-2.72,2.72h-4.4V92.07a6.28,6.28,0,0,0,.84,3.75,2.7,2.7,0,0,0,2.21,1.07c.24,0,.54,0,.86,0a3.07,3.07,0,0,1,3.13,3.06h0a3.08,3.08,0,0,1-2.82,3.06c-1,.08-1.94.12-2.84.12Q337.26,103.16,337.26,92.6Z"/><path class="cls-3" d="M362.9,101.21a10.27,10.27,0,0,1-4-5.78,35.28,35.28,0,0,1-1.15-10V75.38q0-9.18,2.87-13.43t10.22-4.25q5.36,0,8.07,2.22a10.73,10.73,0,0,1,3.6,6.24A52.59,52.59,0,0,1,383.41,77v3.6H366v8.87c0,2.71.39,4.66,1.19,5.86a4.19,4.19,0,0,0,3.78,1.8,3.59,3.59,0,0,0,3.53-1.8,7.17,7.17,0,0,0,.91-3.47v-.67a4,4,0,0,1,4-4h0a4,4,0,0,1,4,3.94v.13c-.23,4.81-1.07,5.8-3.06,8.25s-5.16,3.67-9.49,3.67Q365.73,103.16,362.9,101.21Zm12.47-25.06v-4a17,17,0,0,0-.88-6.47c-.58-1.3-1.82-2-3.71-2a4.37,4.37,0,0,0-3,.92,5.19,5.19,0,0,0-1.42,3,37,37,0,0,0-.38,6.08v2.38Z"/><path class="cls-3" d="M392.06,114.22a6.68,6.68,0,0,1-3.83-6.31,7.6,7.6,0,0,1,1.8-5,12,12,0,0,1,1.32-1.35,2.64,2.64,0,0,0,.23-3.82,1.54,1.54,0,0,1-.17-.19,4.28,4.28,0,0,1-1.11-2.83,6.86,6.86,0,0,1,1.15-4,16.58,16.58,0,0,1,1.84-2.21,2.63,2.63,0,0,0,.07-3.56,12.22,12.22,0,0,1-2-3.3,21.63,21.63,0,0,1-1.26-8.15q0-7.73,3.17-11.75t9.3-4a11.77,11.77,0,0,1,5.74,1.23,7.39,7.39,0,0,1,1.8,1.37,2.63,2.63,0,0,0,3.59.24l.24-.2a12.07,12.07,0,0,1,1.88-1.42l.53-.25a2.6,2.6,0,0,1,3.54,1.4h0a2.6,2.6,0,0,1-1.58,3.42c-.5.16-1,.35-1.62.56-.4.15-.77.29-1.1.43a2.6,2.6,0,0,0-1.58,3q.21.86.39,1.92a25.84,25.84,0,0,1,.42,4.29Q414.79,81,412,85t-9.42,4a17.56,17.56,0,0,1-2.48-.18,2.61,2.61,0,0,0-2.8,1.53,3.88,3.88,0,0,0-.38,1.49,1.51,1.51,0,0,0,.88,1.34,7.3,7.3,0,0,0,2.79.65l6.89.61q5.21.45,7.73,3.14t2.53,7.65q0,11-15.39,11Q395.89,116.25,392.06,114.22Zm17.29-5.43a3.48,3.48,0,0,0,2.07-3.33,3.81,3.81,0,0,0-1.3-3.18,9.47,9.47,0,0,0-4.74-1.34l-5.72-.5a2.65,2.65,0,0,0-2.16.83,20.18,20.18,0,0,0-1.54,1.89,4.65,4.65,0,0,0-.84,2.68,3.22,3.22,0,0,0,1.72,3q1.73.94,6.09.95A15,15,0,0,0,409.35,108.79ZM406.83,81q1-2.3,1-7.5a21.76,21.76,0,0,0-1-7.69c-.66-1.61-2.07-2.41-4.21-2.41s-3.59.8-4.32,2.41-1.11,4.17-1.11,7.69a18.71,18.71,0,0,0,1.11,7.27,4.19,4.19,0,0,0,4.24,2.52Q405.84,83.26,406.83,81Z"/><path class="cls-3" d="M428.45,58.31h0a4.11,4.11,0,0,1,4.1,4.1v2.18c1.53-2.5,2.48-3.76,4.32-5a9.06,9.06,0,0,1,1.74-1,3.22,3.22,0,0,1,.41-.15c3.77-.91,4.62,1.84,4.62,3.7h0c0,1.76-.55,3.55-3,3.76-.42,0-1.09.07-1.48.07a6.75,6.75,0,0,0-3.56,1,9.67,9.67,0,0,0-3,3.33V98.46a4.1,4.1,0,0,1-4.1,4.09h0a4.09,4.09,0,0,1-4.09-4.09v-36A4.1,4.1,0,0,1,428.45,58.31Z"/><path class="cls-3" d="M452.1,101.71a10,10,0,0,1-3.18-3.83,11.34,11.34,0,0,1-1.14-5A14.73,14.73,0,0,1,450,84.45a16.44,16.44,0,0,1,5.67-5.17,88.62,88.62,0,0,1,9.57-4.36V71.78a15.42,15.42,0,0,0-.88-6.16c-.59-1.19-1.78-1.8-3.56-1.8-3.12,0-4.23,1.88-4.57,4.55h0a3.91,3.91,0,0,1-4.05,3.8h0a3.89,3.89,0,0,1-3.71-4.56,12.86,12.86,0,0,1,2.94-6.43q3.22-3.48,9.95-3.48,6.36,0,9.22,3.48c1.92,2.33,2.87,5.83,2.87,10.53v20.2q0,3.11.3,6.47a3.84,3.84,0,0,1-3.83,4.17h0a3.86,3.86,0,0,1-3.79-3.21c-.23-1.35-.39-2.45-.48-3.29a11.13,11.13,0,0,1-3.18,5,8.25,8.25,0,0,1-5.78,2.06A7.61,7.61,0,0,1,452.1,101.71ZM463,94.86a10,10,0,0,0,2.22-2.41V79.9a46.48,46.48,0,0,0-5.09,3.17,12.9,12.9,0,0,0-3,3.1A7.38,7.38,0,0,0,456,90.38a7.65,7.65,0,0,0,1,4.25,3.26,3.26,0,0,0,2.91,1.49A4.93,4.93,0,0,0,463,94.86Z"/><path class="cls-3" d="M486.16,40.56h0a4.09,4.09,0,0,1,4.09,4.09V98.46a4.09,4.09,0,0,1-4.09,4.09h0a4.1,4.1,0,0,1-4.1-4.09V44.65A4.1,4.1,0,0,1,486.16,40.56Z"/></svg>