<svg id="Layer_1" data-name="Layer 1" xmlns="http://www.w3.org/2000/svg" viewBox="0 0 445.79 457.79"><defs><style>.cls-1{fill:#004e46;}.cls-2{fill:#fff;}.cls-3{fill:#0a9962;}</style></defs><title>logo beo</title><rect class="cls-1" x="-7.66" y="-29.81" width="465.7" height="495.92"/><path class="cls-2" d="M318.08,88.69A6.59,6.59,0,0,0,316.14,84a6.05,6.05,0,0,0-4.43-1.8h0L197.22,83a64.6,64.6,0,0,0-64,65l.69,100.63a6.27,6.27,0,0,0,6.38,6.37h0l114.49-1.11c35.48-.13,64.31-29.52,63.9-64.73Zm-63.2,161.76-114.36.83h0a2.7,2.7,0,0,1-2.77-2.77l-.69-100.63a60.11,60.11,0,0,1,17.46-43.11,60.81,60.81,0,0,1,43-18.16L312,85.78h0a3.11,3.11,0,0,1,1.94.83,2.74,2.74,0,0,1,.84,1.94l.69,100.63A61,61,0,0,1,254.88,250.45Z"/><path class="cls-2" d="M304.64,99.5c-.42-2.35-2.08-4.16-4.44-4.16l-99.1.7a54.33,54.33,0,0,0-53.92,54.75l.55,87.18a4.08,4.08,0,0,0,4.16,4.16l99.38-.69a54.33,54.33,0,0,0,53.92-54.75Zm-49.49,20.79,8-5.12a1.4,1.4,0,0,1,2.08.69l2.64,9a3.48,3.48,0,0,1-1.53,3.74l-7.76,4.85a1.32,1.32,0,0,1-1.94-.69L253.77,124A3.37,3.37,0,0,1,255.15,120.29Zm-15.52,8.88,7.07-6.38a1.4,1.4,0,0,1,2.08.28l4.16,8.45a3,3,0,0,1-.7,3.74l-6.79,6.24a1.35,1.35,0,0,1-2.08-.41l-4.43-8A3.17,3.17,0,0,1,239.63,129.17Zm-6.93,23a1.31,1.31,0,0,1-2.08-.27l-4.71-7.9a3.37,3.37,0,0,1,.55-4l6.79-6.79a1.25,1.25,0,0,1,2.08.41l4.44,8.32a3.18,3.18,0,0,1-.56,3.88Zm25.78,14.42L250,171.3a3.37,3.37,0,0,1-4-.55L239.77,164a1.4,1.4,0,0,1,.28-2.08l8-4.58a3.19,3.19,0,0,1,3.89.56l6.79,6.65C259.45,164.93,259.31,166,258.48,166.59Zm13-8.87-8.73,4.16a3.2,3.2,0,0,1-3.88-.83l-6-7.21a1.41,1.41,0,0,1,.41-2.08l8.32-4a3,3,0,0,1,3.74.83l6.24,7.07A1.18,1.18,0,0,1,271.51,157.72Zm13.86-10-8.18,4.85a3.17,3.17,0,0,1-4-.55l-6.51-6.52a1.31,1.31,0,0,1,.28-2.08l7.9-4.71a3.36,3.36,0,0,1,3.88.42l6.93,6.37A1.69,1.69,0,0,1,285.37,147.74Zm3.33-24-3.19,9a3.1,3.1,0,0,1-3.47,2.08l-9.14-1a1.27,1.27,0,0,1-1.11-1.8l3.19-8.74a3.19,3.19,0,0,1,3.32-2.08l9.43.7A1.25,1.25,0,0,1,288.7,123.76Z"/><path class="cls-3" d="M195.41,227.3a1,1,0,0,1-.55-.14h-.28a3.4,3.4,0,0,1-1.94-1.24,5,5,0,0,1-1.39-2.5l-10.67-49.48a4.7,4.7,0,0,1-.14-1.39,2.43,2.43,0,0,1,1.81-1.66c.27-.14.41-.14.69-.28s.41-.14.55-.14a1.06,1.06,0,0,1,.56.14,3.54,3.54,0,0,1,1.52,1,3.66,3.66,0,0,1,1,1.94l9.15,43.8h1.8l1.53-5.4c4.43-16.64,17.6-36.6,25.36-45.88,12.06-14.28,24.81-22.32,36.87-29.39,2.08-1.25,3.19-1.8,4.16-1.8a1.72,1.72,0,0,1,.83.14,2.55,2.55,0,0,1,1.53,1.24,1.83,1.83,0,0,1,.41,1.81,2.14,2.14,0,0,1-.69,1c-2.77,1.8-5.27,3.32-7.62,4.71-12.76,7.9-21.07,13-36.6,33.27-7.34,9.7-13.16,20.65-18.71,35.62L200.4,223.7a6.87,6.87,0,0,1-4.16,3.46l-.41.14Z"/><path class="cls-2" d="M66.66,304.25h.25a3.83,3.83,0,0,1,3.74,3l9.15,42.66,8.71-42.63a3.82,3.82,0,0,1,3.75-3.06h0A3.83,3.83,0,0,1,96,308.9L84.14,362.54a4.73,4.73,0,0,1-4.61,3.71h0a4.72,4.72,0,0,1-4.61-3.7l-12-53.64A3.83,3.83,0,0,1,66.66,304.25Z"/><path class="cls-2" d="M107.54,306.86h0a4.1,4.1,0,0,1,4.1,4.09v.38a4.11,4.11,0,0,1-4.1,4.1h0a4.1,4.1,0,0,1-4.09-4.1V311A4.09,4.09,0,0,1,107.54,306.86Zm0,15.15h0a4.1,4.1,0,0,1,4.1,4.09v36a4.11,4.11,0,0,1-4.1,4.1h0a4.1,4.1,0,0,1-4.09-4.1v-36A4.09,4.09,0,0,1,107.54,322Z"/><path class="cls-2" d="M122.66,356.3V327.44h-2a2.71,2.71,0,0,1-2.71-2.71h0A2.71,2.71,0,0,1,120.7,322h2v-8.84a4.09,4.09,0,0,1,4.09-4.09h0a4.1,4.1,0,0,1,4.1,4.09V322h4.4a2.71,2.71,0,0,1,2.71,2.72h0a2.71,2.71,0,0,1-2.71,2.71h-4.4v28.32a6.24,6.24,0,0,0,.84,3.75c.56.72.9,1.05,2.48,1.05h.57a3.11,3.11,0,0,1,3.15,3.1h0a3.12,3.12,0,0,1-2.85,3.09q-1.47.12-2.82.12Q122.65,366.86,122.66,356.3Z"/><path class="cls-2" d="M147.42,365.41a9.86,9.86,0,0,1-3.18-3.83,11.22,11.22,0,0,1-1.15-5,14.69,14.69,0,0,1,2.22-8.45A16.5,16.5,0,0,1,151,343a88.48,88.48,0,0,1,9.57-4.36v-3.14q0-4.37-.88-6.16c-.59-1.2-1.77-1.8-3.56-1.8-3.11,0-4.3,1.66-4.67,4.28v.2a3.86,3.86,0,0,1-4,3.86h0a3.85,3.85,0,0,1-3.68-4.51,12.84,12.84,0,0,1,2.95-6.47q3.21-3.48,9.95-3.48,6.35,0,9.22,3.48t2.87,10.52v20.21c0,2.07.1,4.22.3,6.47a3.84,3.84,0,0,1-3.83,4.17h0a3.84,3.84,0,0,1-3.79-3.21c-.23-1.36-.4-2.46-.49-3.3a11.19,11.19,0,0,1-3.17,5.05,8.23,8.23,0,0,1-5.78,2.07A7.68,7.68,0,0,1,147.42,365.41Zm10.9-6.85a10,10,0,0,0,2.22-2.42V343.59a50.05,50.05,0,0,0-5.09,3.18,12.68,12.68,0,0,0-3,3.1,7.36,7.36,0,0,0-1.19,4.21,7.61,7.61,0,0,0,1,4.25,3.27,3.27,0,0,0,2.9,1.49A4.89,4.89,0,0,0,158.32,358.56Z"/><path class="cls-3" d="M181.24,306.86h0a4.09,4.09,0,0,1,4.1,4.09v.38a4.1,4.1,0,0,1-4.1,4.1h0a4.1,4.1,0,0,1-4.09-4.1V311A4.09,4.09,0,0,1,181.24,306.86Zm0,15.15h0a4.09,4.09,0,0,1,4.1,4.09v36a4.1,4.1,0,0,1-4.1,4.1h0a4.1,4.1,0,0,1-4.09-4.1v-36A4.09,4.09,0,0,1,181.24,322Z"/><path class="cls-3" d="M198.23,322h0a4.1,4.1,0,0,1,4.1,4.09v.27q5.28-5,10.79-5a5.48,5.48,0,0,1,5.13,2.6,12.49,12.49,0,0,1,1.53,6.43v31.72a4.1,4.1,0,0,1-4.1,4.1h0a4.1,4.1,0,0,1-4.09-4.1V332.8a7.24,7.24,0,0,0-.77-3.75,3,3,0,0,0-2.75-1.22c-1.64,0-3.55.91-5.74,2.75v31.57a4.11,4.11,0,0,1-4.1,4.1h0a4.1,4.1,0,0,1-4.09-4.1v-36A4.09,4.09,0,0,1,198.23,322Z"/><path class="cls-3" d="M230,356.3V327.44h-2a2.71,2.71,0,0,1-2.72-2.71h0A2.72,2.72,0,0,1,228,322h2v-8.84a4.09,4.09,0,0,1,4.09-4.09h0a4.1,4.1,0,0,1,4.1,4.09V322h4.4a2.71,2.71,0,0,1,2.71,2.72h0a2.71,2.71,0,0,1-2.71,2.71h-4.4v28.32a6.24,6.24,0,0,0,.84,3.75,2.64,2.64,0,0,0,2.21,1.07,5.75,5.75,0,0,0,.86,0,3.09,3.09,0,0,1,3.13,3.07h0a3.07,3.07,0,0,1-2.82,3.05c-1,.09-1.94.13-2.85.13Q230,366.86,230,356.3Z"/><path class="cls-3" d="M255.6,364.91a10.3,10.3,0,0,1-4-5.78,35.33,35.33,0,0,1-1.15-9.95v-10.1c0-6.13,1-10.6,2.87-13.44s5.32-4.24,10.22-4.24q5.35,0,8.07,2.22a10.74,10.74,0,0,1,3.6,6.23,53.3,53.3,0,0,1,.88,10.83v3.6H258.66v8.88c0,2.7.39,4.66,1.18,5.85a4.21,4.21,0,0,0,3.79,1.8,3.57,3.57,0,0,0,3.52-1.8,7,7,0,0,0,.92-3.47v-.66a4,4,0,0,1,4-4h0a4,4,0,0,1,4,3.94v.13c-.24,4.81-1.07,5.81-3.06,8.26s-5.16,3.67-9.49,3.67C260.14,366.86,257.48,366.21,255.6,364.91Zm12.47-25.07v-4a17,17,0,0,0-.88-6.47c-.59-1.3-1.82-1.95-3.71-1.95a4.42,4.42,0,0,0-3,.92,5.19,5.19,0,0,0-1.42,3,37,37,0,0,0-.38,6.08v2.37Z"/><path class="cls-3" d="M284.76,377.92a6.68,6.68,0,0,1-3.83-6.32,7.6,7.6,0,0,1,1.8-5.05,12,12,0,0,1,1.32-1.35,2.63,2.63,0,0,0,.23-3.81l-.17-.19a4.28,4.28,0,0,1-1.11-2.84,7,7,0,0,1,1.14-4,19.11,19.11,0,0,1,1.85-2.21,2.63,2.63,0,0,0,.07-3.56,12.07,12.07,0,0,1-2-3.3,21.6,21.6,0,0,1-1.26-8.15q0-7.73,3.17-11.74t9.3-4a11.89,11.89,0,0,1,5.74,1.22,7.39,7.39,0,0,1,1.8,1.37,2.62,2.62,0,0,0,3.59.24l.24-.19a10.61,10.61,0,0,1,1.88-1.42l.53-.26a2.61,2.61,0,0,1,3.54,1.41h0a2.6,2.6,0,0,1-1.58,3.42c-.5.16-1,.35-1.62.56l-1.11.42a2.59,2.59,0,0,0-1.57,3c.14.58.26,1.22.39,1.93a25.73,25.73,0,0,1,.42,4.28q0,7.28-2.83,11.29t-9.42,4a16.12,16.12,0,0,1-2.48-.19,2.63,2.63,0,0,0-2.81,1.54,3.8,3.8,0,0,0-.37,1.48,1.49,1.49,0,0,0,.88,1.34,7.07,7.07,0,0,0,2.79.65l6.89.61q5.21.47,7.73,3.14c1.68,1.79,2.53,4.34,2.53,7.66q0,11-15.39,11Q288.59,380,284.76,377.92Zm17.29-5.44a3.45,3.45,0,0,0,2.07-3.32,3.81,3.81,0,0,0-1.3-3.18q-1.31-1-4.75-1.34l-5.72-.5a2.64,2.64,0,0,0-2.15.83,16.71,16.71,0,0,0-1.54,1.89,4.63,4.63,0,0,0-.84,2.68,3.2,3.2,0,0,0,1.72,3q1.72,1,6.08,1A15.07,15.07,0,0,0,302.05,372.48Zm-2.52-27.82q1-2.3,1-7.5a21.8,21.8,0,0,0-1-7.69q-1-2.42-4.21-2.41T291,329.47q-1.11,2.41-1.11,7.69a18.67,18.67,0,0,0,1.11,7.27,4.2,4.2,0,0,0,4.25,2.53Q298.52,347,299.53,344.66Z"/><path class="cls-3" d="M321.15,322h0a4.09,4.09,0,0,1,4.09,4.09v2.19c1.53-2.5,2.48-3.76,4.32-5a8.83,8.83,0,0,1,1.74-1,4.09,4.09,0,0,1,.42-.16c3.77-.91,4.62,1.85,4.62,3.71h0c0,1.76-.55,3.54-3,3.75-.42,0-1.09.07-1.48.07a6.66,6.66,0,0,0-3.56,1,9.79,9.79,0,0,0-3,3.33v28.2a4.1,4.1,0,0,1-4.09,4.1h0a4.11,4.11,0,0,1-4.1-4.1v-36A4.1,4.1,0,0,1,321.15,322Z"/><path class="cls-3" d="M344.8,365.41a10,10,0,0,1-3.18-3.83,11.36,11.36,0,0,1-1.15-5,14.69,14.69,0,0,1,2.22-8.45,16.44,16.44,0,0,1,5.67-5.17,87.28,87.28,0,0,1,9.56-4.36v-3.14q0-4.37-.88-6.16c-.58-1.2-1.77-1.8-3.56-1.8-3.11,0-4.22,1.88-4.56,4.54h0a3.91,3.91,0,0,1-4.05,3.81h0a3.89,3.89,0,0,1-3.71-4.56,12.78,12.78,0,0,1,2.94-6.43q3.21-3.48,9.95-3.48,6.35,0,9.22,3.48t2.87,10.52v20.21c0,2.07.1,4.22.3,6.47a3.84,3.84,0,0,1-3.83,4.17h0a3.86,3.86,0,0,1-3.79-3.21q-.35-2-.48-3.3a11.3,11.3,0,0,1-3.18,5.05,8.23,8.23,0,0,1-5.78,2.07A7.68,7.68,0,0,1,344.8,365.41Zm10.9-6.85a10,10,0,0,0,2.22-2.42V343.59a50.05,50.05,0,0,0-5.09,3.18,12.68,12.68,0,0,0-3,3.1,7.36,7.36,0,0,0-1.19,4.21,7.61,7.61,0,0,0,1,4.25,3.28,3.28,0,0,0,2.91,1.49A4.89,4.89,0,0,0,355.7,358.56Z"/><path class="cls-3" d="M378.86,304.25h0a4.1,4.1,0,0,1,4.09,4.1v53.8a4.1,4.1,0,0,1-4.09,4.1h0a4.1,4.1,0,0,1-4.1-4.1v-53.8A4.1,4.1,0,0,1,378.86,304.25Z"/></svg>