<svg id="Layer_1" data-name="Layer 1" xmlns="http://www.w3.org/2000/svg" viewBox="0 0 409.56 399.78"><defs><style>.cls-1{fill:#004e46;}.cls-2{fill:#f29d20;}.cls-3{fill:#0a9962;}</style></defs><title>logo ceo</title><path class="cls-1" d="M300,59.36A6.59,6.59,0,0,0,298,54.65a6.06,6.06,0,0,0-4.44-1.8h0l-114.49.83a64.62,64.62,0,0,0-64,65l.7,100.63a6.27,6.27,0,0,0,6.37,6.37h0l114.49-1.1c35.49-.14,64.32-29.53,63.9-64.74ZM236.76,221.12,122.41,222h0a2.7,2.7,0,0,1-2.77-2.77l-.7-100.63a60.13,60.13,0,0,1,17.47-43.11,60.78,60.78,0,0,1,43-18.16l114.49-.83h0a3.16,3.16,0,0,1,1.94.83,2.77,2.77,0,0,1,.83,1.94l.69,100.63A61,61,0,0,1,236.76,221.12Z"/><path class="cls-1" d="M282.09,66,183,66.71a54.34,54.34,0,0,0-53.92,54.75l.56,87.19a4.08,4.08,0,0,0,4.15,4.15l99.39-.69a54.34,54.34,0,0,0,53.92-54.75l-.56-87.19A4.61,4.61,0,0,0,282.09,66Z"/><path class="cls-2" d="M240.37,137.26,231.91,142a3.37,3.37,0,0,1-4-.55l-6.24-6.79a1.41,1.41,0,0,1,.28-2.08l8-4.58a3.18,3.18,0,0,1,3.88.56l6.79,6.65C241.34,135.6,241.2,136.71,240.37,137.26Z"/><path class="cls-2" d="M253.4,128.39l-8.74,4.16a3.19,3.19,0,0,1-3.88-.83l-6-7.21a1.41,1.41,0,0,1,.42-2.08l8.31-4a3,3,0,0,1,3.75.83l6.23,7.07A1.17,1.17,0,0,1,253.4,128.39Z"/><path class="cls-2" d="M267.26,118.41l-8.18,4.85a3.17,3.17,0,0,1-4-.55l-6.52-6.52a1.32,1.32,0,0,1,.28-2.08l7.9-4.71a3.36,3.36,0,0,1,3.88.42l6.93,6.37A1.68,1.68,0,0,1,267.26,118.41Z"/><path class="cls-2" d="M215.14,103.86l-6.79,6.79a3.38,3.38,0,0,0-.56,4l4.72,7.9a1.31,1.31,0,0,0,2.07.28l6.52-6.38a3.16,3.16,0,0,0,.55-3.88l-4.43-8.32A1.26,1.26,0,0,0,215.14,103.86Z"/><path class="cls-2" d="M228.58,93.46l-7.06,6.38a3.19,3.19,0,0,0-.7,3.88l4.44,8a1.35,1.35,0,0,0,2.08.41l6.79-6.23a3,3,0,0,0,.69-3.75l-4.16-8.45A1.4,1.4,0,0,0,228.58,93.46Z"/><path class="cls-2" d="M245.08,85.84,237,91a3.36,3.36,0,0,0-1.39,3.74l2.91,8.73a1.32,1.32,0,0,0,1.94.69l7.77-4.85a3.48,3.48,0,0,0,1.52-3.74l-2.63-9A1.4,1.4,0,0,0,245.08,85.84Z"/><path class="cls-2" d="M270.58,94.43l-3.19,9a3.09,3.09,0,0,1-3.46,2.08l-9.15-1a1.28,1.28,0,0,1-1.11-1.8L256.86,94a3.18,3.18,0,0,1,3.33-2.08l9.42.69A1.24,1.24,0,0,1,270.58,94.43Z"/><path class="cls-3" d="M177.3,198a1.06,1.06,0,0,1-.56-.14h-.27a3.29,3.29,0,0,1-1.94-1.24,4.91,4.91,0,0,1-1.39-2.5l-10.67-49.48a4.7,4.7,0,0,1-.14-1.39,2.45,2.45,0,0,1,1.8-1.66c.28-.14.42-.14.69-.28.42-.14.42-.14.56-.14a1,1,0,0,1,.55.14,3.67,3.67,0,0,1,1.53,1,3.77,3.77,0,0,1,1,1.94l9.15,43.8h1.8l1.52-5.4c4.44-16.64,17.61-36.6,25.37-45.88,12.06-14.28,24.81-22.32,36.87-29.39,2.08-1.25,3.19-1.8,4.16-1.8a1.76,1.76,0,0,1,.83.14,2.55,2.55,0,0,1,1.52,1.25,1.79,1.79,0,0,1,.42,1.8,2.22,2.22,0,0,1-.69,1c-2.78,1.8-5.27,3.32-7.63,4.71-12.75,7.9-21.07,13-36.59,33.27-7.35,9.7-13.17,20.65-18.71,35.62l-4.16,11.09a6.9,6.9,0,0,1-4.16,3.46l-.42.14Z"/><path class="cls-1" d="M48.55,274.92h.25a3.83,3.83,0,0,1,3.74,3l9.14,42.67L70.4,278a3.82,3.82,0,0,1,3.74-3.06h0a3.83,3.83,0,0,1,3.74,4.65L66,333.21a4.71,4.71,0,0,1-4.61,3.71h0a4.73,4.73,0,0,1-4.61-3.69l-12-53.65A3.82,3.82,0,0,1,48.55,274.92Z"/><path class="cls-1" d="M89.43,277.53h0a4.09,4.09,0,0,1,4.09,4.09V282a4.09,4.09,0,0,1-4.09,4.1h0a4.1,4.1,0,0,1-4.1-4.1v-.38A4.1,4.1,0,0,1,89.43,277.53Zm0,15.15h0a4.09,4.09,0,0,1,4.09,4.1v36a4.1,4.1,0,0,1-4.09,4.1h0a4.11,4.11,0,0,1-4.1-4.1v-36A4.1,4.1,0,0,1,89.43,292.68Z"/><path class="cls-1" d="M104.54,327V298.12h-2a2.72,2.72,0,0,1-2.72-2.72h0a2.72,2.72,0,0,1,2.72-2.72h2v-8.84a4.09,4.09,0,0,1,4.1-4.09h0a4.09,4.09,0,0,1,4.09,4.09v8.84h4.4a2.72,2.72,0,0,1,2.72,2.72h0a2.72,2.72,0,0,1-2.72,2.72h-4.4v28.31a6.24,6.24,0,0,0,.84,3.75c.56.72.9,1.05,2.49,1.05h.56a3.11,3.11,0,0,1,3.15,3.1h0a3.11,3.11,0,0,1-2.85,3.09c-1,.08-1.92.12-2.81.12Q104.54,337.53,104.54,327Z"/><path class="cls-1" d="M129.3,336.08a10,10,0,0,1-3.18-3.83,11.35,11.35,0,0,1-1.14-5,14.72,14.72,0,0,1,2.22-8.45,16.41,16.41,0,0,1,5.66-5.17,87.58,87.58,0,0,1,9.57-4.36v-3.14a15.39,15.39,0,0,0-.88-6.16c-.59-1.2-1.78-1.8-3.56-1.8-3.12,0-4.31,1.66-4.67,4.28v.2a3.88,3.88,0,0,1-4,3.87h0a3.86,3.86,0,0,1-3.67-4.52,12.84,12.84,0,0,1,2.94-6.47q3.23-3.48,10-3.48,6.36,0,9.23,3.48t2.87,10.52v20.21c0,2.07.09,4.23.29,6.47a3.84,3.84,0,0,1-3.82,4.17h0a3.86,3.86,0,0,1-3.8-3.21q-.34-2-.48-3.3a11.08,11.08,0,0,1-3.18,5,8.2,8.2,0,0,1-5.77,2.07A7.62,7.62,0,0,1,129.3,336.08Zm10.91-6.85a10.16,10.16,0,0,0,2.22-2.41V314.26a48.94,48.94,0,0,0-5.09,3.18,12.72,12.72,0,0,0-3,3.1,7.36,7.36,0,0,0-1.18,4.21,7.68,7.68,0,0,0,1,4.25,3.28,3.28,0,0,0,2.91,1.49A4.91,4.91,0,0,0,140.21,329.23Z"/><path class="cls-3" d="M163.13,277.53h0a4.09,4.09,0,0,1,4.09,4.09V282a4.09,4.09,0,0,1-4.09,4.1h0A4.1,4.1,0,0,1,159,282v-.38A4.1,4.1,0,0,1,163.13,277.53Zm0,15.15h0a4.09,4.09,0,0,1,4.09,4.1v36a4.1,4.1,0,0,1-4.09,4.1h0a4.11,4.11,0,0,1-4.1-4.1v-36A4.1,4.1,0,0,1,163.13,292.68Z"/><path class="cls-3" d="M180.12,292.68h0a4.09,4.09,0,0,1,4.09,4.1V297q5.28-5,10.79-5a5.48,5.48,0,0,1,5.13,2.6,12.52,12.52,0,0,1,1.53,6.43v31.72a4.1,4.1,0,0,1-4.09,4.1h0a4.11,4.11,0,0,1-4.1-4.1V303.47a7.25,7.25,0,0,0-.76-3.75A3,3,0,0,0,190,298.5q-2.44,0-5.74,2.75v31.57a4.1,4.1,0,0,1-4.09,4.1h0a4.11,4.11,0,0,1-4.1-4.1v-36A4.1,4.1,0,0,1,180.12,292.68Z"/><path class="cls-3" d="M211.84,327V298.12h-2a2.72,2.72,0,0,1-2.72-2.72h0a2.72,2.72,0,0,1,2.72-2.72h2v-8.84a4.1,4.1,0,0,1,4.1-4.09h0a4.09,4.09,0,0,1,4.09,4.09v8.84h4.4a2.72,2.72,0,0,1,2.72,2.72h0a2.72,2.72,0,0,1-2.72,2.72H220v28.31a6.24,6.24,0,0,0,.84,3.75,2.65,2.65,0,0,0,2.22,1.07,7.13,7.13,0,0,0,.85,0,3.07,3.07,0,0,1,3.13,3.06h0a3.09,3.09,0,0,1-2.82,3.06c-1,.08-1.94.12-2.84.12Q211.84,337.53,211.84,327Z"/><path class="cls-3" d="M237.48,335.58a10.35,10.35,0,0,1-4-5.78,35.7,35.7,0,0,1-1.15-9.95v-10.1q0-9.18,2.87-13.43t10.22-4.25q5.35,0,8.08,2.22a10.67,10.67,0,0,1,3.59,6.24,52.46,52.46,0,0,1,.88,10.83V315H240.54v8.88q0,4.07,1.19,5.86a4.19,4.19,0,0,0,3.79,1.79,3.57,3.57,0,0,0,3.52-1.79,7.18,7.18,0,0,0,.92-3.48v-.66a4,4,0,0,1,4-4h0a4,4,0,0,1,4,4v.13c-.23,4.8-1.07,5.8-3.06,8.25s-5.15,3.67-9.49,3.67Q240.31,337.53,237.48,335.58ZM250,310.51v-4a17.14,17.14,0,0,0-.88-6.46q-.89-1.95-3.72-1.95a4.43,4.43,0,0,0-3,.91,5.15,5.15,0,0,0-1.41,3,35.68,35.68,0,0,0-.39,6.08v2.37Z"/><path class="cls-3" d="M266.64,348.59a6.69,6.69,0,0,1-3.83-6.31,7.63,7.63,0,0,1,1.8-5.06,12.85,12.85,0,0,1,1.32-1.34,2.64,2.64,0,0,0,.24-3.82l-.18-.19a4.28,4.28,0,0,1-1.11-2.84,6.82,6.82,0,0,1,1.15-4,17.39,17.39,0,0,1,1.84-2.21,2.63,2.63,0,0,0,.08-3.57,12.19,12.19,0,0,1-2-3.29,21.69,21.69,0,0,1-1.26-8.16q0-7.72,3.18-11.74t9.3-4a11.92,11.92,0,0,1,5.74,1.22,8.08,8.08,0,0,1,1.8,1.37,2.61,2.61,0,0,0,3.59.24l.23-.19a11.52,11.52,0,0,1,1.89-1.42l.52-.25a2.61,2.61,0,0,1,3.55,1.4h0a2.61,2.61,0,0,1-1.59,3.42c-.5.16-1,.35-1.61.56l-1.11.42a2.61,2.61,0,0,0-1.58,3c.14.58.27,1.22.39,1.93a25.73,25.73,0,0,1,.42,4.28q0,7.28-2.83,11.29t-9.41,4a16,16,0,0,1-2.48-.19,2.64,2.64,0,0,0-2.81,1.54,3.84,3.84,0,0,0-.38,1.48,1.5,1.5,0,0,0,.88,1.34,7,7,0,0,0,2.8.65l6.89.62c3.46.3,6,1.35,7.72,3.13s2.53,4.34,2.53,7.66q0,11-15.38,11Q270.47,350.62,266.64,348.59Zm17.3-5.43a3.47,3.47,0,0,0,2.06-3.33,3.81,3.81,0,0,0-1.3-3.18c-.86-.69-2.45-1.13-4.74-1.34l-5.72-.5a2.62,2.62,0,0,0-2.15.83,16.91,16.91,0,0,0-1.55,1.89,4.65,4.65,0,0,0-.84,2.68,3.22,3.22,0,0,0,1.72,3q1.72,1,6.09,1A15.25,15.25,0,0,0,283.94,343.16Zm-2.53-27.82c.66-1.54,1-4,1-7.51a21.75,21.75,0,0,0-1-7.69c-.66-1.6-2.06-2.41-4.21-2.41s-3.58.81-4.32,2.41-1.11,4.17-1.11,7.69a18.76,18.76,0,0,0,1.11,7.28,4.2,4.2,0,0,0,4.25,2.52Q280.41,317.63,281.41,315.34Z"/><path class="cls-3" d="M303,292.68h0a4.09,4.09,0,0,1,4.1,4.1V299c1.53-2.5,2.48-3.76,4.32-5a8.83,8.83,0,0,1,1.74-1,3.89,3.89,0,0,1,.41-.16c3.78-.91,4.63,1.85,4.63,3.71h0c0,1.76-.56,3.55-3,3.76-.42,0-1.09.06-1.49.06a6.69,6.69,0,0,0-3.56,1,9.87,9.87,0,0,0-3,3.33v28.2a4.1,4.1,0,0,1-4.1,4.1h0a4.1,4.1,0,0,1-4.09-4.1v-36A4.09,4.09,0,0,1,303,292.68Z"/><path class="cls-3" d="M326.68,336.08a9.92,9.92,0,0,1-3.17-3.83,11.22,11.22,0,0,1-1.15-5,14.72,14.72,0,0,1,2.22-8.45,16.5,16.5,0,0,1,5.66-5.17,88.48,88.48,0,0,1,9.57-4.36v-3.14a15.39,15.39,0,0,0-.88-6.16c-.59-1.2-1.78-1.8-3.56-1.8-3.11,0-4.22,1.88-4.56,4.55h0a3.91,3.91,0,0,1-4.06,3.8h0A3.89,3.89,0,0,1,323,302a12.82,12.82,0,0,1,2.94-6.43q3.21-3.48,10-3.48,6.34,0,9.22,3.48T348,306.07v20.21q0,3.11.3,6.47a3.85,3.85,0,0,1-3.83,4.17h0a3.86,3.86,0,0,1-3.8-3.21q-.35-2-.48-3.3a11.14,11.14,0,0,1-3.17,5,8.24,8.24,0,0,1-5.78,2.07A7.62,7.62,0,0,1,326.68,336.08Zm10.91-6.85a10.16,10.16,0,0,0,2.22-2.41V314.26a48.94,48.94,0,0,0-5.09,3.18,12.91,12.91,0,0,0-3,3.1,7.36,7.36,0,0,0-1.18,4.21,7.68,7.68,0,0,0,1,4.25,3.3,3.3,0,0,0,2.91,1.49A4.91,4.91,0,0,0,337.59,329.23Z"/><path class="cls-3" d="M360.74,274.92h0a4.11,4.11,0,0,1,4.1,4.1v53.8a4.11,4.11,0,0,1-4.1,4.1h0a4.1,4.1,0,0,1-4.09-4.1V279A4.1,4.1,0,0,1,360.74,274.92Z"/></svg>