<svg id="Layer_1" data-name="Layer 1" xmlns="http://www.w3.org/2000/svg" viewBox="0 0 272.92 286.7"><defs><style>.cls-1{fill:#004e46;}.cls-2{fill:#f29d20;}.cls-3{fill:#0a9962;}</style></defs><title>logo samo znak</title><path class="cls-1" d="M234.86,63.69A6.6,6.6,0,0,0,232.92,59a6.1,6.1,0,0,0-4.44-1.8h0L114,58a64.62,64.62,0,0,0-64,65l.7,100.63A6.27,6.27,0,0,0,57,230h0l114.5-1.11c35.48-.14,64.31-29.53,63.89-64.73ZM171.65,225.44l-114.35.84h0a2.7,2.7,0,0,1-2.77-2.78l-.69-100.63A60.1,60.1,0,0,1,71.3,79.76a60.79,60.79,0,0,1,43-18.15l114.49-.83h0a3.08,3.08,0,0,1,1.94.83,2.69,2.69,0,0,1,.83,1.94l.7,100.63A61,61,0,0,1,171.65,225.44Z"/><path class="cls-1" d="M217,70.34,117.87,71A54.34,54.34,0,0,0,64,125.78L64.51,213a4.08,4.08,0,0,0,4.16,4.16l99.38-.7A54.33,54.33,0,0,0,222,161.68l-.56-87.18C221,72.14,219.34,70.34,217,70.34Z"/><path class="cls-2" d="M175.26,141.58l-8.46,4.72a3.39,3.39,0,0,1-4-.56L156.55,139a1.4,1.4,0,0,1,.27-2.08l8-4.57a3.16,3.16,0,0,1,3.88.55l6.8,6.66C176.23,139.92,176.09,141,175.26,141.58Z"/><path class="cls-2" d="M188.29,132.71l-8.74,4.16a3.19,3.19,0,0,1-3.88-.83l-6-7.21a1.42,1.42,0,0,1,.42-2.08l8.32-4a3,3,0,0,1,3.74.84l6.24,7.06A1.18,1.18,0,0,1,188.29,132.71Z"/><path class="cls-2" d="M202.15,122.73,194,127.58a3.16,3.16,0,0,1-4-.55l-6.51-6.51a1.31,1.31,0,0,1,.27-2.08l7.9-4.72a3.36,3.36,0,0,1,3.88.42l6.94,6.38A1.68,1.68,0,0,1,202.15,122.73Z"/><path class="cls-2" d="M150,108.18,143.24,115a3.38,3.38,0,0,0-.56,4l4.72,7.9a1.32,1.32,0,0,0,2.08.28l6.51-6.38a3.18,3.18,0,0,0,.56-3.88l-4.44-8.31A1.26,1.26,0,0,0,150,108.18Z"/><path class="cls-2" d="M163.48,97.78l-7.07,6.38a3.19,3.19,0,0,0-.7,3.88l4.44,8a1.36,1.36,0,0,0,2.08.42l6.79-6.24a3,3,0,0,0,.69-3.74l-4.15-8.46A1.41,1.41,0,0,0,163.48,97.78Z"/><path class="cls-2" d="M180,90.16l-8,5.13A3.34,3.34,0,0,0,170.55,99l2.91,8.73a1.32,1.32,0,0,0,1.94.7l7.76-4.85a3.48,3.48,0,0,0,1.52-3.75l-2.63-9A1.41,1.41,0,0,0,180,90.16Z"/><path class="cls-2" d="M205.47,98.75l-3.18,9a3.1,3.1,0,0,1-3.47,2.08l-9.15-1a1.28,1.28,0,0,1-1.11-1.8l3.19-8.73a3.18,3.18,0,0,1,3.33-2.08l9.42.69A1.24,1.24,0,0,1,205.47,98.75Z"/><path class="cls-3" d="M112.19,202.3a1,1,0,0,1-.55-.14h-.28a3.39,3.39,0,0,1-1.94-1.25,5,5,0,0,1-1.39-2.5L97.36,148.93a4.66,4.66,0,0,1-.14-1.39,2.45,2.45,0,0,1,1.8-1.66c.28-.14.42-.14.7-.28s.41-.13.55-.13a1.07,1.07,0,0,1,.55.13,3.67,3.67,0,0,1,1.53,1,3.76,3.76,0,0,1,1,2l9.15,43.8h1.8l1.52-5.41c4.44-16.63,17.61-36.59,25.37-45.88C153.22,126.75,166,118.71,178,111.64c2.08-1.24,3.19-1.8,4.16-1.8a1.74,1.74,0,0,1,.83.14,2.59,2.59,0,0,1,1.52,1.25A1.79,1.79,0,0,1,185,113a2.12,2.12,0,0,1-.69,1c-2.77,1.8-5.27,3.33-7.63,4.71-12.75,7.9-21.06,13-36.59,33.27-7.35,9.7-13.17,20.65-18.71,35.62l-4.16,11.09a6.91,6.91,0,0,1-4.16,3.47l-.41.14Z"/></svg>